<svg width="95" height="95" viewBox="0 0 95 95" fill="none" xmlns="http://www.w3.org/2000/svg">
<path d="M59.375 59.375H65.3125V89.0625H59.375V59.375ZM11.875 68.2812H17.8125V89.0625H11.875V68.2812Z" fill="#FEFBDF"/>
<path d="M47.5 89.0625H41.5625V77.1875C41.5625 76.4001 41.2497 75.645 40.693 75.0883C40.1362 74.5315 39.3811 74.2188 38.5938 74.2188H32.6562V89.0625H26.7188V68.2813H38.5938C40.9551 68.2836 43.2191 69.2227 44.8888 70.8924C46.5586 72.5622 47.4976 74.8261 47.5 77.1875V89.0625ZM22.2656 65.3125C19.5108 65.3094 16.8698 64.2136 14.9218 62.2657C12.9739 60.3178 11.8781 57.6767 11.875 54.9219V50.4688H5.9375V44.5313H17.8125V54.9219C17.8125 56.1029 18.2817 57.2356 19.1168 58.0707C19.9519 58.9058 21.0846 59.375 22.2656 59.375C23.4467 59.375 24.5793 58.9058 25.4145 58.0707C26.2496 57.2356 26.7188 56.1029 26.7188 54.9219V44.5313H38.5938V50.4688H32.6562V54.9219C32.6531 57.6767 31.5574 60.3178 29.6094 62.2657C27.6615 64.2136 25.0204 65.3094 22.2656 65.3125ZM80.1562 29.6875H63.3947C61.6134 29.6832 59.8721 30.2148 58.397 31.2134C56.922 32.2119 55.7814 33.6312 55.1238 35.2866L50.8428 45.9889L40.1345 59.378L44.7717 63.0889L55.7561 49.3555L60.6397 37.4923C60.8581 36.9403 61.2377 36.4668 61.7292 36.1337C62.2206 35.8006 62.801 35.6234 63.3947 35.625H80.1562C80.9436 35.625 81.6987 35.9378 82.2555 36.4945C82.8122 37.0513 83.125 37.8064 83.125 38.5938V59.375H74.2188V89.0625H80.1562V65.3125H83.125C84.6997 65.3125 86.2099 64.6869 87.3234 63.5735C88.4369 62.46 89.0625 60.9497 89.0625 59.375V38.5938C89.0601 36.2324 88.121 33.9684 86.4513 32.2987C84.7816 30.629 82.5176 29.6899 80.1562 29.6875ZM71.25 26.7188C68.9013 26.7188 66.6054 26.0223 64.6526 24.7175C62.6998 23.4126 61.1777 21.558 60.2789 19.3881C59.3801 17.2182 59.145 14.8306 59.6032 12.5271C60.0614 10.2235 61.1924 8.10761 62.8531 6.44686C64.5139 4.78611 66.6298 3.65513 68.9333 3.19693C71.2368 2.73873 73.6245 2.9739 75.7944 3.87269C77.9642 4.77148 79.8189 6.29352 81.1237 8.24636C82.4285 10.1992 83.125 12.4951 83.125 14.8438C83.1211 17.992 81.8687 21.0102 79.6426 23.2363C77.4164 25.4625 74.3982 26.7148 71.25 26.7188ZM71.25 8.90626C70.0757 8.90626 68.9277 9.25448 67.9513 9.9069C66.9749 10.5593 66.2139 11.4866 65.7645 12.5716C65.3151 13.6565 65.1975 14.8503 65.4266 16.0021C65.6557 17.1539 66.2212 18.2118 67.0516 19.0422C67.8819 19.8726 68.9399 20.4381 70.0917 20.6672C71.2434 20.8963 72.4372 20.7787 73.5222 20.3293C74.6071 19.8799 75.5344 19.1189 76.1869 18.1425C76.8393 17.166 77.1875 16.0181 77.1875 14.8438C77.1875 13.269 76.5619 11.7588 75.4484 10.6453C74.3349 9.53181 72.8247 8.90626 71.25 8.90626Z" fill="#FEFBDF"/>
</svg>
