<svg width="92" height="92" viewBox="0 0 92 92" fill="none" xmlns="http://www.w3.org/2000/svg">
<path fill-rule="evenodd" clip-rule="evenodd" d="M64.8485 26.4692C64.8485 33.1028 63.2002 41.7546 60.6644 40.4417C59.6275 43.8279 57.4506 46.7508 54.5033 48.7142C51.556 50.6776 48.0201 51.5604 44.4958 51.2128C40.9715 50.8651 37.6761 49.3084 35.1693 46.807C32.6624 44.3055 31.0986 41.0135 30.7434 37.49C28.2268 33.0874 24.9263 24.265 33.4114 17.388C33.5647 17.3382 33.6567 16.9242 33.7947 16.3147C34.3199 14.0089 35.4833 8.88375 42.8222 9.86317C48.4821 10.6164 64.8485 13.5374 64.8485 26.4692ZM57.5537 30.6533C57.5537 30.6533 56.6874 33.1871 57.5 36.0103C57.4895 39.0206 56.299 41.9068 54.1842 44.0491C52.0693 46.1914 49.1988 47.419 46.1889 47.4685C43.179 47.5179 40.2697 46.3851 38.0857 44.3134C35.9017 42.2417 34.6171 39.3962 34.5077 36.3879C34.7856 35.3338 34.7856 33.5493 34.7837 31.5656C34.7818 27.9872 34.7779 23.7648 36.4167 22.0436C47.8956 29.6892 57.5537 30.6533 57.5537 30.6533Z" fill="#FEFBDF"/>
<path d="M24.9167 69C24.9167 66.9262 26.0149 65.1092 27.6632 64.0972C27.6006 63.8585 27.5418 63.6189 27.4869 63.3784C27.1972 62.0688 26.9701 60.746 26.8065 59.4148C26.643 58.1389 26.5439 56.8557 26.5094 55.5699C18.4192 58.7458 11.5 64.2812 11.5 70.0925V80.5H80.5V70.0925C80.5 64.5265 74.1558 59.2154 66.5122 55.9858V56.0395C66.5467 57.2087 66.4815 58.5503 66.355 59.8403C66.24 61.0363 66.0694 62.2284 65.8643 63.25H67.0833C67.4392 63.2502 67.788 63.3494 68.0906 63.5366C68.3932 63.7238 68.6378 63.9916 68.7968 64.3099L70.7135 68.1433C70.8477 68.4097 70.9167 68.7029 70.9167 69V72.8333C70.9167 73.3417 70.7147 73.8292 70.3553 74.1886C69.9958 74.5481 69.5083 74.75 69 74.75H65.1667V70.9167H67.0833V69.4523L65.8988 67.0833H60.6012L59.4167 69.4523V70.9167H61.3333V74.75H57.5C56.9917 74.75 56.5042 74.5481 56.1447 74.1886C55.7853 73.8292 55.5833 73.3417 55.5833 72.8333V69C55.5833 68.7029 55.6523 68.4097 55.7865 68.1433L57.7032 64.3099C57.8622 63.9916 58.1068 63.7238 58.4094 63.5366C58.712 63.3494 59.0608 63.2502 59.4167 63.25H61.9371C61.9792 63.0852 62.0214 62.9024 62.0636 62.7018C62.2552 61.7991 62.4258 60.6548 62.5408 59.4723C62.6558 58.2878 62.7095 57.1128 62.6807 56.1468C62.6744 55.7466 62.6431 55.3471 62.5868 54.9508C62.5447 54.6787 62.5025 54.5541 62.4948 54.5273C62.4923 54.5209 62.4923 54.5196 62.4948 54.5234L62.5006 54.5215C61.4835 54.206 60.4548 53.9292 59.4167 53.6916C58.4526 53.4712 57.4559 54.7975 57.0208 55.6274H34.5L34.3352 55.3054C33.9288 54.4966 33.4286 53.498 32.5833 53.6916C31.8448 53.859 31.1069 54.0487 30.3696 54.2608C30.3467 54.597 30.3365 54.934 30.3389 55.2709C30.3466 56.3308 30.4482 57.6284 30.6111 58.9394C30.774 60.2466 30.9944 61.5192 31.2244 62.5236C31.2909 62.8136 31.3548 63.0718 31.4161 63.2979C32.5119 63.442 33.5429 63.8988 34.3858 64.6136C35.2287 65.3285 35.8477 66.2711 36.1687 67.3287C36.4898 68.3862 36.4992 69.5139 36.196 70.5767C35.8927 71.6395 35.2895 72.5923 34.4587 73.3212C33.6279 74.0501 32.6047 74.5241 31.5115 74.6865C30.4183 74.8489 29.3014 74.6927 28.2946 74.2368C27.2878 73.7809 26.4338 73.0445 25.8347 72.1157C25.2356 71.1869 24.9169 70.1052 24.9167 69Z" fill="#FEFBDF"/>
<path d="M32.5833 69C32.5833 70.1002 31.6978 70.9454 30.6667 70.9454C29.6355 70.9454 28.75 70.1021 28.75 69C28.75 67.8998 29.6355 67.0546 30.6667 67.0546C31.6978 67.0546 32.5833 67.8979 32.5833 69Z" fill="#FEFBDF"/>
</svg>
